<svg width="103" height="32" viewBox="0 0 103 32" fill="none" xmlns="http://www.w3.org/2000/svg">
<path d="M98 0H31V32H98C100.761 32 103 29.7614 103 27V5C103 2.23858 100.761 0 98 0Z" fill="#0F1418"/>
<path d="M0 5C0 2.23858 2.23858 0 5 0H31V32H5C2.23858 32 0 29.7614 0 27V5Z" fill="#00FF00"/>
<path d="M28.4167 16H2.58334C2.58334 16.2253 2.58334 17.108 2.58334 17.3333C2.58334 24.6853 8.37776 30.6667 15.5 30.6667C22.6223 30.6667 28.4167 24.6853 28.4167 17.3333C28.4167 17.108 28.4167 16.2253 28.4167 16Z" fill="black"/>
<path d="M15.5 28.6666C22.277 28.6666 27.7708 22.9955 27.7708 15.9999C27.7708 9.00431 22.277 3.33325 15.5 3.33325C8.723 3.33325 3.22916 9.00431 3.22916 15.9999C3.22916 22.9955 8.723 28.6666 15.5 28.6666Z" fill="#00FF00"/>
<path d="M15.5 29.3334C8.37776 29.3334 2.58334 23.3521 2.58334 16.0001C2.58334 8.64808 8.37776 2.66675 15.5 2.66675C22.6223 2.66675 28.4167 8.64808 28.4167 16.0001C28.4167 23.3521 22.6223 29.3334 15.5 29.3334ZM15.5 4.00008C9.09011 4.00008 3.87501 9.38341 3.87501 16.0001C3.87501 22.6167 9.09011 28.0001 15.5 28.0001C21.9099 28.0001 27.125 22.6167 27.125 16.0001C27.125 9.38341 21.9099 4.00008 15.5 4.00008Z" fill="black"/>
<path d="M20.5033 22.6099C20.3147 22.6099 20.1254 22.5132 19.9369 22.4152C18.1434 21.3439 15.9721 20.7592 13.6129 20.7592C12.2908 20.7592 10.9695 20.9532 9.74238 21.2459C9.5538 21.2459 9.27028 21.3432 9.17599 21.3432C8.70388 21.3432 8.42101 20.9526 8.42101 20.5632C8.42101 20.0766 8.70388 19.7832 9.08169 19.6872C10.5917 19.2966 12.1023 19.1026 13.7065 19.1026C16.3499 19.1026 18.8041 19.7832 20.8804 21.0519C21.1633 21.2459 21.3525 21.4412 21.3525 21.9279C21.2582 22.3186 20.8804 22.6099 20.5033 22.6099ZM21.8246 19.2966C21.5418 19.2966 21.3532 19.2006 21.1639 19.1026C19.1825 17.8359 16.4442 17.0552 13.33 17.0552C11.8194 17.0552 10.4037 17.2506 9.36522 17.5439C9.08169 17.6399 8.9874 17.6399 8.79882 17.6399C8.23242 17.6399 7.85461 17.1532 7.85461 16.6659C7.85461 16.0812 8.13813 15.7886 8.60959 15.5946C10.0253 15.2052 11.4416 14.9126 13.4236 14.9126C16.6334 14.9126 19.7483 15.6926 22.2024 17.2506C22.5796 17.4446 22.7688 17.8352 22.7688 18.2246C22.7688 18.8099 22.391 19.2966 21.8246 19.2966ZM23.3352 15.4006C23.0524 15.4006 22.9574 15.3032 22.6745 15.2066C20.409 13.8419 17.0112 13.0619 13.7072 13.0619C12.008 13.0619 10.3088 13.2572 8.79882 13.6466C8.60959 13.6466 8.42101 13.7439 8.13813 13.7439C7.47744 13.8412 7.00534 13.2572 7.00534 12.5746C7.00534 11.8926 7.38315 11.5032 7.85461 11.4052C9.64809 10.8206 11.5359 10.6252 13.7072 10.6252C17.2941 10.6252 21.0697 11.4052 23.9016 13.0612C24.2788 13.2566 24.5617 13.6459 24.5617 14.2306C24.468 14.9126 23.9953 15.4006 23.3352 15.4006Z" fill="black"/>
<path d="M98 0H5C2.23858 0 0 2.23858 0 5V27C0 29.7614 2.23858 32 5 32H98C100.761 32 103 29.7614 103 27V5C103 2.23858 100.761 0 98 0Z" fill="url(#paint0_linear_20_2)"/>
<path d="M48.8065 18.2095C48.8065 18.019 48.7772 17.8481 48.7186 17.6968C48.6649 17.5405 48.5624 17.3989 48.411 17.272C48.2596 17.1401 48.0472 17.0107 47.7738 16.8838C47.5004 16.7568 47.1464 16.625 46.7118 16.4883C46.2284 16.332 45.7694 16.1562 45.3348 15.9609C44.9052 15.7656 44.5243 15.5386 44.1923 15.2798C43.8651 15.0161 43.6063 14.7109 43.4159 14.3643C43.2304 14.0176 43.1376 13.6147 43.1376 13.1558C43.1376 12.7114 43.2352 12.3086 43.4305 11.9473C43.6259 11.5811 43.8993 11.2686 44.2509 11.0098C44.6024 10.7461 45.0175 10.5435 45.496 10.4019C45.9794 10.2603 46.5092 10.1895 47.0853 10.1895C47.8715 10.1895 48.5575 10.3311 49.1434 10.6143C49.7294 10.8975 50.1835 11.2856 50.5057 11.7788C50.8329 12.272 50.9965 12.8359 50.9965 13.4707H48.8138C48.8138 13.1582 48.7479 12.8848 48.6161 12.6504C48.4891 12.4111 48.2938 12.2231 48.0302 12.0864C47.7714 11.9497 47.4442 11.8813 47.0487 11.8813C46.6679 11.8813 46.3505 11.9399 46.0966 12.0571C45.8427 12.1694 45.6522 12.3232 45.5253 12.5186C45.3983 12.709 45.3348 12.9238 45.3348 13.1631C45.3348 13.3438 45.3788 13.5073 45.4667 13.6538C45.5595 13.8003 45.6962 13.937 45.8768 14.064C46.0575 14.1909 46.2797 14.3105 46.5433 14.4229C46.807 14.5352 47.1122 14.645 47.4589 14.7524C48.0399 14.9282 48.5502 15.126 48.9896 15.3457C49.434 15.5654 49.8051 15.812 50.1029 16.0854C50.4008 16.3589 50.6254 16.6689 50.7767 17.0156C50.9281 17.3623 51.0038 17.7554 51.0038 18.1948C51.0038 18.6587 50.9135 19.0737 50.7328 19.4399C50.5521 19.8062 50.2909 20.1162 49.9491 20.3701C49.6073 20.624 49.1996 20.8169 48.726 20.9487C48.2523 21.0806 47.7225 21.1465 47.1366 21.1465C46.6093 21.1465 46.0892 21.0781 45.5765 20.9414C45.0638 20.7998 44.5975 20.5874 44.1776 20.3042C43.7626 20.021 43.4305 19.6597 43.1815 19.2202C42.9325 18.7808 42.808 18.2607 42.808 17.6602H45.0126C45.0126 17.9922 45.0638 18.2729 45.1664 18.5024C45.2689 18.7319 45.413 18.9175 45.5985 19.0591C45.7889 19.2007 46.0136 19.3032 46.2723 19.3667C46.536 19.4302 46.8241 19.4619 47.1366 19.4619C47.5175 19.4619 47.83 19.4082 48.0741 19.3008C48.3231 19.1934 48.5062 19.0444 48.6234 18.854C48.7455 18.6636 48.8065 18.4487 48.8065 18.2095ZM54.6555 14.5986V24.0469H52.5461V13.0752H54.5017L54.6555 14.5986ZM59.6726 16.9497V17.1035C59.6726 17.6797 59.6042 18.2144 59.4675 18.7075C59.3356 19.2007 59.1403 19.6304 58.8815 19.9966C58.6228 20.3579 58.3005 20.6411 57.9147 20.8462C57.5339 21.0464 57.0944 21.1465 56.5964 21.1465C56.113 21.1465 55.6931 21.0488 55.3366 20.8535C54.9802 20.6582 54.6799 20.3848 54.4357 20.0332C54.1965 19.6768 54.0036 19.2642 53.8571 18.7954C53.7106 18.3267 53.5983 17.8237 53.5202 17.2866V16.8838C53.5983 16.3076 53.7106 15.7803 53.8571 15.3018C54.0036 14.8184 54.1965 14.4009 54.4357 14.0493C54.6799 13.6929 54.9777 13.417 55.3293 13.2217C55.6857 13.0264 56.1032 12.9287 56.5817 12.9287C57.0847 12.9287 57.5266 13.0239 57.9074 13.2144C58.2932 13.4048 58.6154 13.6782 58.8742 14.0347C59.1379 14.3911 59.3356 14.8159 59.4675 15.3091C59.6042 15.8022 59.6726 16.3491 59.6726 16.9497ZM57.5559 17.1035V16.9497C57.5559 16.6128 57.5266 16.3027 57.468 16.0195C57.4143 15.7314 57.3264 15.48 57.2043 15.2651C57.0871 15.0503 56.9309 14.8843 56.7355 14.7671C56.5451 14.645 56.3132 14.584 56.0397 14.584C55.7517 14.584 55.5051 14.6304 55.3 14.7231C55.0998 14.8159 54.9362 14.9502 54.8093 15.126C54.6823 15.3018 54.5871 15.5117 54.5236 15.7559C54.4602 16 54.4211 16.2759 54.4064 16.5835V17.6016C54.4309 17.9629 54.4992 18.2876 54.6115 18.5757C54.7238 18.8589 54.8972 19.0835 55.1315 19.2495C55.3659 19.4155 55.6735 19.4985 56.0544 19.4985C56.3327 19.4985 56.5671 19.4375 56.7575 19.3154C56.948 19.1885 57.1018 19.0151 57.2189 18.7954C57.341 18.5757 57.4265 18.3218 57.4753 18.0337C57.529 17.7456 57.5559 17.4355 57.5559 17.1035ZM60.8267 17.1182V16.9644C60.8267 16.3833 60.9097 15.8486 61.0757 15.3604C61.2417 14.8672 61.4834 14.4399 61.8008 14.0786C62.1182 13.7173 62.5088 13.4365 62.9727 13.2363C63.4365 13.0312 63.9688 12.9287 64.5694 12.9287C65.1699 12.9287 65.7046 13.0312 66.1734 13.2363C66.6421 13.4365 67.0352 13.7173 67.3526 14.0786C67.6748 14.4399 67.919 14.8672 68.085 15.3604C68.251 15.8486 68.334 16.3833 68.334 16.9644V17.1182C68.334 17.6943 68.251 18.229 68.085 18.7222C67.919 19.2104 67.6748 19.6377 67.3526 20.0039C67.0352 20.3652 66.6446 20.646 66.1807 20.8462C65.7168 21.0464 65.1846 21.1465 64.584 21.1465C63.9834 21.1465 63.4488 21.0464 62.98 20.8462C62.5161 20.646 62.1231 20.3652 61.8008 20.0039C61.4834 19.6377 61.2417 19.2104 61.0757 18.7222C60.9097 18.229 60.8267 17.6943 60.8267 17.1182ZM62.9361 16.9644V17.1182C62.9361 17.4502 62.9654 17.7603 63.0239 18.0483C63.0825 18.3364 63.1753 18.5903 63.3023 18.8101C63.4341 19.0249 63.605 19.1934 63.815 19.3154C64.0249 19.4375 64.2813 19.4985 64.584 19.4985C64.877 19.4985 65.1284 19.4375 65.3384 19.3154C65.5484 19.1934 65.7168 19.0249 65.8438 18.8101C65.9707 18.5903 66.0635 18.3364 66.1221 18.0483C66.1856 17.7603 66.2173 17.4502 66.2173 17.1182V16.9644C66.2173 16.6421 66.1856 16.3394 66.1221 16.0562C66.0635 15.7681 65.9683 15.5142 65.8364 15.2944C65.7095 15.0698 65.541 14.894 65.3311 14.7671C65.1211 14.6401 64.8672 14.5767 64.5694 14.5767C64.2715 14.5767 64.0176 14.6401 63.8076 14.7671C63.6026 14.894 63.4341 15.0698 63.3023 15.2944C63.1753 15.5142 63.0825 15.7681 63.0239 16.0562C62.9654 16.3394 62.9361 16.6421 62.9361 16.9644ZM73.6922 13.0752V14.5693H69.078V13.0752H73.6922ZM70.2205 11.1196H72.3299V18.6123C72.3299 18.8418 72.3592 19.0176 72.4178 19.1396C72.4813 19.2617 72.5741 19.3472 72.6961 19.396C72.8182 19.4399 72.972 19.4619 73.1576 19.4619C73.2894 19.4619 73.4066 19.457 73.5091 19.4473C73.6165 19.4326 73.7069 19.418 73.7801 19.4033L73.7874 20.9561C73.6068 21.0146 73.4115 21.061 73.2015 21.0952C72.9915 21.1294 72.7596 21.1465 72.5057 21.1465C72.0418 21.1465 71.6366 21.0708 71.2899 20.9194C70.9481 20.7632 70.6844 20.5142 70.4989 20.1724C70.3133 19.8306 70.2205 19.3813 70.2205 18.8247V11.1196ZM77.3 13.0752V21H75.1833V13.0752H77.3ZM75.0514 11.0098C75.0514 10.7021 75.1588 10.4482 75.3737 10.248C75.5885 10.0479 75.8766 9.94775 76.2379 9.94775C76.5944 9.94775 76.88 10.0479 77.0949 10.248C77.3146 10.4482 77.4245 10.7021 77.4245 11.0098C77.4245 11.3174 77.3146 11.5713 77.0949 11.7715C76.88 11.9717 76.5944 12.0718 76.2379 12.0718C75.8766 12.0718 75.5885 11.9717 75.3737 11.7715C75.1588 11.5713 75.0514 11.3174 75.0514 11.0098ZM81.9111 21H79.7871V12.3721C79.7871 11.7715 79.9043 11.2661 80.1387 10.856C80.3779 10.4409 80.7124 10.1284 81.1421 9.91846C81.5766 9.70361 82.0918 9.59619 82.6875 9.59619C82.8828 9.59619 83.0708 9.61084 83.2514 9.64014C83.4321 9.66455 83.6079 9.69629 83.7788 9.73535L83.7568 11.3247C83.664 11.3003 83.5664 11.2832 83.4639 11.2734C83.3613 11.2637 83.2417 11.2588 83.105 11.2588C82.8511 11.2588 82.6338 11.3027 82.4531 11.3906C82.2773 11.4736 82.1431 11.5981 82.0503 11.7642C81.9575 11.9302 81.9111 12.1328 81.9111 12.3721V21ZM83.4931 13.0752V14.5693H78.6079V13.0752H83.4931ZM87.1302 20.1064L89.2322 13.0752H91.4954L88.3094 22.1938C88.241 22.394 88.1482 22.6089 88.0311 22.8384C87.9188 23.0679 87.7649 23.2852 87.5696 23.4902C87.3792 23.7002 87.1375 23.8711 86.8445 24.0029C86.5564 24.1348 86.2024 24.2007 85.7825 24.2007C85.5823 24.2007 85.4188 24.1885 85.2918 24.1641C85.1648 24.1396 85.0135 24.1055 84.8377 24.0615V22.5161C84.8914 22.5161 84.9476 22.5161 85.0062 22.5161C85.0648 22.521 85.1209 22.5234 85.1746 22.5234C85.4529 22.5234 85.68 22.4917 85.8558 22.4282C86.0315 22.3647 86.1731 22.2671 86.2806 22.1353C86.388 22.0083 86.4734 21.8423 86.5369 21.6372L87.1302 20.1064ZM86.2513 13.0752L87.9725 18.8174L88.2728 21.0513L86.8372 21.2051L83.9881 13.0752H86.2513Z" fill="white"/>
<defs>
<linearGradient id="paint0_linear_20_2" x1="0" y1="0" x2="0" y2="32" gradientUnits="userSpaceOnUse">
<stop stop-color="#BBBBBB" stop-opacity="0.1"/>
<stop offset="1" stop-opacity="0.1"/>
</linearGradient>
</defs>
</svg>
